<svg width="112" height="42" viewBox="0 0 112 42" fill="none" xmlns="http://www.w3.org/2000/svg">
<path d="M32.381 41.9048V16.8594C32.381 16.7619 32.381 16.6667 32.381 16.5703L32.3723 16.4023C32.3723 16.3272 32.3608 16.251 32.3535 16.1782C32.3463 16.1053 32.3376 16.028 32.3274 15.9541C32.3173 15.8801 32.3071 15.8084 32.2956 15.7367C32.284 15.665 32.2738 15.609 32.2608 15.544C32.2608 15.5104 32.2477 15.4756 32.2405 15.442C32.2333 15.4084 32.2202 15.3412 32.2086 15.2919C32.197 15.2426 32.1811 15.1798 32.1666 15.1193C32.1521 15.0588 32.1391 15.0129 32.1231 14.9602C32.1072 14.9076 32.0927 14.8482 32.0753 14.7967C32.058 14.7451 32.0493 14.7126 32.0348 14.6689C32.0203 14.6252 31.9957 14.549 31.9725 14.4885C31.9493 14.428 31.9363 14.3877 31.9174 14.3373C31.8986 14.2869 31.8798 14.2375 31.858 14.1871C31.8363 14.1367 31.8146 14.0751 31.7899 14.0235C31.7392 13.9048 31.6842 13.7871 31.6262 13.6717L31.5567 13.5328C31.5436 13.5093 31.532 13.4846 31.5175 13.4622C31.49 13.4073 31.4596 13.3502 31.4292 13.2986C31.3987 13.2471 31.3669 13.1866 31.335 13.1361C31.3031 13.0857 31.2756 13.0387 31.2466 12.9927C31.2176 12.9468 31.193 12.9065 31.164 12.865C31.1351 12.8235 31.1293 12.8079 31.1104 12.781L31.0467 12.6868C31.0177 12.6443 30.9887 12.6017 30.9583 12.5614C30.9279 12.521 30.8902 12.4639 30.854 12.4168C30.8178 12.3698 30.7931 12.3361 30.7613 12.2958C30.7468 12.2768 30.7323 12.2566 30.7164 12.2375L30.6367 12.1378C30.6034 12.0964 30.5686 12.0538 30.5324 12.0123C30.4961 11.9709 30.4425 11.9003 30.3947 11.8521C30.3469 11.8039 30.3092 11.7558 30.2658 11.7087C30.2223 11.6616 30.2064 11.6437 30.1759 11.6123C30.1455 11.581 30.1165 11.5485 30.0847 11.5182C29.9688 11.3961 29.8456 11.2762 29.7181 11.1586C29.6674 11.1104 29.6167 11.0644 29.5645 11.0185C29.5124 10.9726 29.4472 10.9143 29.3863 10.8639C29.1516 10.6644 28.9053 10.4732 28.6474 10.2902C28.604 10.2588 28.5605 10.2297 28.5171 10.1995C28.2008 9.98132 27.869 9.77707 27.5232 9.58769L27.3537 9.49693C27.1957 9.4129 27.0349 9.33111 26.8698 9.2538C26.7973 9.22018 26.7249 9.18657 26.6539 9.15519C26.5539 9.10926 26.4525 9.06444 26.3496 9.02298C26.2888 8.99721 26.2294 8.97144 26.1685 8.94791C26.1077 8.92438 26.0034 8.88293 25.9208 8.85155C25.8382 8.82018 25.7527 8.78881 25.6687 8.75856C25.5847 8.72831 25.5238 8.70814 25.4543 8.68461L25.3398 8.64651L25.1573 8.58825C25.0761 8.56248 24.995 8.53895 24.9124 8.5143C24.8298 8.48965 24.7675 8.47284 24.6907 8.45267L24.5604 8.41794C24.5039 8.40225 24.4473 8.38769 24.3894 8.37424C24.3314 8.3608 24.2445 8.34063 24.1779 8.32382C24.1112 8.30702 24.0576 8.29469 23.9968 8.28237L23.8838 8.25883C23.8403 8.24875 23.7968 8.24091 23.7519 8.23195C23.707 8.22298 23.6664 8.21402 23.6215 8.20617C23.5766 8.19833 23.4998 8.18265 23.439 8.17368C23.4123 8.16777 23.3852 8.16291 23.3578 8.15912L23.2217 8.13558C23.1594 8.1255 23.0956 8.11542 23.0333 8.10757C22.971 8.09973 22.8884 8.08516 22.8087 8.0762C22.7291 8.06724 22.6711 8.05716 22.603 8.05043L22.5552 8.04483C22.4857 8.03587 22.4103 8.02914 22.3422 8.02242L22.1104 8.00113C22.0394 7.99441 21.9655 7.98881 21.8931 7.98433L21.8149 7.97872L21.641 7.96976C21.5888 7.96976 21.5367 7.96304 21.4845 7.96192H21.4498C21.4048 7.96192 21.357 7.96192 21.3049 7.96192H21.2353H21.1252H20.9601H20.8557C19.0349 7.96082 17.2397 8.29389 15.6177 8.93375C13.9957 9.5736 12.5932 10.502 11.5254 11.6426C11.5442 11.6247 11.5631 11.6079 11.5804 11.5899C11.9019 11.2776 12.2824 11.0045 12.7091 10.7798C12.7525 10.7563 12.796 10.7339 12.8409 10.7137C13.0332 10.617 13.2341 10.5308 13.4422 10.456L13.6537 10.3843C14.0854 10.2452 14.5397 10.1525 15.004 10.1087L15.1894 10.093L15.3111 10.0863C15.4227 10.0863 15.5343 10.0773 15.6487 10.0773C17.0009 10.0785 18.2997 10.4857 19.2711 11.2132C20.2425 11.9406 20.8107 12.9313 20.8557 13.9765C20.8557 14.0202 20.8557 14.0639 20.8557 14.1065C20.8557 14.149 20.8557 14.1939 20.8557 14.2376V33.916C21.1516 36.1079 22.4868 38.1373 24.6037 39.6126C26.7206 41.0879 29.4691 41.9045 32.3187 41.9048H32.381Z" fill="url(#paint0_linear_3213_69)"/>
<path d="M0 0V25.0454C0 25.1429 0 25.2381 0 25.3345L0.00869252 25.5025C0.00869252 25.5776 0.0202837 25.6538 0.0275278 25.7266C0.0347718 25.7994 0.0434636 25.8768 0.0536053 25.9507C0.063747 26.0247 0.0738875 26.0964 0.0840291 26.1681L0.118804 26.3608L0.140535 26.4628C0.150677 26.5132 0.160818 26.5636 0.172409 26.6129C0.183999 26.6622 0.199933 26.7249 0.214421 26.7854C0.228909 26.8459 0.241951 26.8919 0.257888 26.9445C0.273825 26.9972 0.288311 27.0566 0.305697 27.1081C0.323083 27.1597 0.331776 27.1922 0.346264 27.2359C0.360752 27.2796 0.385385 27.3558 0.408566 27.4163C0.431747 27.4768 0.443334 27.5171 0.463617 27.5675C0.483901 27.6179 0.50129 27.6672 0.521573 27.7177C0.541857 27.7681 0.566484 27.8297 0.591113 27.8812C0.641822 28 0.696877 28.1177 0.75483 28.2331L0.824374 28.372C0.837414 28.3955 0.849003 28.4202 0.863491 28.4426C0.891018 28.4975 0.921445 28.5546 0.95187 28.6062C0.982296 28.6577 1.01417 28.7182 1.04604 28.7686C1.07792 28.8191 1.10399 28.8661 1.13442 28.9121C1.16484 28.958 1.18802 28.9983 1.21555 29.0398C1.24308 29.0812 1.25177 29.0969 1.27061 29.1238L1.33435 29.2179C1.36333 29.2605 1.39231 29.3031 1.42273 29.3434C1.45316 29.3838 1.49082 29.4409 1.52704 29.488C1.56326 29.535 1.5879 29.5686 1.61977 29.609C1.63426 29.628 1.64875 29.6482 1.66468 29.6672L1.74437 29.767C1.77769 29.8084 1.81246 29.851 1.84868 29.8924C1.8849 29.9339 1.93851 30.0045 1.98632 30.0527L2.11382 30.1961L2.20509 30.2924C2.23407 30.3238 2.26449 30.3563 2.29492 30.3866C2.41227 30.5087 2.53397 30.6286 2.66292 30.7462C2.71363 30.7944 2.76433 30.8403 2.81649 30.8863C2.86865 30.9322 2.93384 30.9905 2.99469 31.0409C3.22795 31.2403 3.4757 31.4319 3.73359 31.6146C3.77705 31.6459 3.81907 31.6751 3.86398 31.7053C4.17971 31.9235 4.51105 32.1277 4.85642 32.3171L5.02737 32.4079C5.1853 32.4919 5.34611 32.5737 5.51128 32.651C5.58372 32.6846 5.65616 32.7182 5.72715 32.7496C5.82712 32.7955 5.92709 32.8403 6.02995 32.8818C6.0908 32.9076 6.15166 32.9333 6.21251 32.9569C6.27336 32.9804 6.37767 33.0219 6.46025 33.0532C6.54283 33.0846 6.62831 33.116 6.71234 33.1462C6.79637 33.1765 6.85723 33.1966 6.92677 33.2202L7.04123 33.2583C7.10063 33.2784 7.16292 33.2975 7.22377 33.3165C7.28462 33.3356 7.38604 33.3658 7.46862 33.3905C7.55121 33.4151 7.6135 33.4319 7.69029 33.4521L7.82068 33.4868C7.87719 33.5025 7.93369 33.5171 7.99165 33.5305C8.0496 33.544 8.13653 33.5642 8.20317 33.581C8.26982 33.5978 8.32342 33.6101 8.38427 33.6224L8.49728 33.6459C8.54075 33.656 8.58421 33.6639 8.62912 33.6728C8.67404 33.6818 8.7146 33.6908 8.75952 33.6986C8.80443 33.7065 8.88122 33.7221 8.94207 33.7311C8.96873 33.7371 8.99582 33.742 9.0232 33.7457L9.15939 33.7692C9.22169 33.7793 9.28543 33.7894 9.34773 33.7972C9.41003 33.8051 9.49262 33.8196 9.5723 33.8286C9.65199 33.8375 9.70994 33.8476 9.77803 33.8544L9.82584 33.86C9.89539 33.8689 9.97072 33.8756 10.0388 33.8824L10.2706 33.9037C10.3416 33.9104 10.4155 33.916 10.4879 33.9205H10.5662L10.74 33.9294C10.7922 33.9294 10.8444 33.9361 10.8965 33.9373H10.9313C10.9762 33.9373 11.024 33.9373 11.0762 33.9373H11.1457H11.2544H11.421H11.5253C13.3461 33.9384 15.1413 33.6053 16.7633 32.9654C18.3853 32.3256 19.7879 31.3972 20.8556 30.2566L20.7991 30.3093C20.4786 30.6218 20.0985 30.895 19.672 31.1193C19.6285 31.1429 19.585 31.1653 19.5401 31.1854C19.3478 31.2822 19.1469 31.3683 18.9389 31.4431L18.7273 31.5149C18.2956 31.654 17.8413 31.7467 17.3771 31.7905L17.1916 31.8062L17.0699 31.8129C16.9583 31.8129 16.8468 31.8219 16.7323 31.8219C15.3801 31.8207 14.0814 31.4135 13.11 30.686C12.1385 29.9586 11.5704 28.9678 11.5253 27.9227C11.5253 27.879 11.5253 27.8353 11.5253 27.7927C11.5253 27.7501 11.5253 27.7053 11.5253 27.6616V7.9888C11.2294 5.79692 9.89422 3.76749 7.77733 2.29218C5.66043 0.816873 2.91194 0.000278591 0.0622979 0H0Z" fill="url(#paint1_linear_3213_69)"/>
<path d="M51.5469 12.123C50.6245 11.5776 49.5683 11.3001 48.4969 11.3219C47.7594 11.3031 47.0241 11.4095 46.3223 11.6366C45.806 11.8151 45.3297 12.0931 44.9203 12.4549C44.6533 12.7019 44.4221 12.9851 44.2336 13.2961H44.1764V5.71387H39.999V26.3147H44.1764V18.8183C44.1131 17.784 44.4126 16.7599 45.0233 15.9227C45.312 15.5851 45.6754 15.3194 46.0846 15.1466C46.4938 14.9738 46.9376 14.8986 47.3809 14.927C47.7513 14.9018 48.1229 14.9522 48.4731 15.0752C48.8233 15.1981 49.1449 15.3911 49.4182 15.6423C49.9355 16.2547 50.1905 17.0463 50.1278 17.8455V26.3147H54.3052V17.5594C54.3266 16.4377 54.0794 15.3271 53.5841 14.3205C53.1228 13.4127 52.4173 12.6516 51.5469 12.123V12.123Z" fill="#03041C"/>
<path d="M70.1565 22.1946V16.9014C70.1565 15.0473 69.5842 13.6052 68.4397 12.621C67.1303 11.5858 65.4886 11.0629 63.8217 11.1503C62.7198 11.1174 61.6231 11.3122 60.6 11.7225C59.7791 12.0612 59.0483 12.5863 58.4654 13.2562C57.9505 13.8705 57.5616 14.5802 57.321 15.3448L57.2352 15.6138L61.1264 16.9185L61.1951 16.6038C61.2929 16.0549 61.5636 15.5516 61.9676 15.1675C62.4803 14.7653 63.1267 14.5731 63.7759 14.6295C64.427 14.5747 65.0733 14.7806 65.5728 15.2018C65.761 15.3919 65.9088 15.6182 66.0071 15.8671C66.1055 16.1159 66.1524 16.3821 66.145 16.6496V17.1646H62.5398C61.5294 17.1464 60.5249 17.3232 59.5814 17.6853C58.7526 18.0031 58.0332 18.5535 57.5098 19.2705C56.9922 20.0421 56.7299 20.9569 56.7602 21.8856C56.7346 22.8209 56.9962 23.7416 57.5098 24.5237C58.0164 25.2492 58.7162 25.8182 59.5298 26.166C60.4331 26.5547 61.4078 26.7496 62.391 26.7383C63.239 26.7737 64.0841 26.6172 64.8632 26.2805C65.398 26.0355 65.8654 25.6644 66.2251 25.1989C66.4081 24.9554 66.5671 24.6947 66.7001 24.4207H66.7802C66.8099 24.6877 66.8956 24.9455 67.0317 25.1773C67.1677 25.409 67.3511 25.6094 67.5699 25.7654C68.1289 26.1612 68.8025 26.3622 69.4869 26.3377H72.1765V22.7669H70.7459C70.351 22.7669 70.1565 22.6696 70.1565 22.1946ZM66.0935 20.4207C66.1108 20.8024 66.042 21.1831 65.8925 21.5347C65.7429 21.8863 65.5163 22.1998 65.2294 22.4521C64.5886 22.9846 63.7728 23.2599 62.9405 23.2247C62.3851 23.2637 61.8327 23.1145 61.3725 22.8012C61.2143 22.6799 61.0872 22.5227 61.0016 22.3426C60.9161 22.1625 60.8745 21.9647 60.8804 21.7654C60.8712 21.5782 60.9081 21.3916 60.9879 21.2219C61.0677 21.0523 61.188 20.9049 61.3381 20.7926C61.7528 20.5199 62.2449 20.3894 62.7402 20.4207H66.0935Z" fill="#03041C"/>
<path d="M79.4153 11.9281C78.9214 12.2007 78.5343 12.6323 78.3166 13.1527H78.2823V11.5504H74.1621V26.3144H78.3395V17.9596C78.3049 17.5849 78.3571 17.2072 78.492 16.8558C78.627 16.5045 78.8411 16.189 79.1178 15.9339C79.7121 15.4739 80.4499 15.2388 81.2008 15.27H83.2608V11.4932H81.258C80.6167 11.4781 79.9822 11.6279 79.4153 11.9281V11.9281Z" fill="#03041C"/>
<path d="M90.7454 11.9281C90.2503 12.1993 89.8627 12.6313 89.6466 13.1527H89.6123V11.5504H85.4922V26.3144H89.6638V17.9596C89.6299 17.5844 89.683 17.2064 89.819 16.8551C89.9549 16.5037 90.1701 16.1885 90.4478 15.9339C91.0404 15.4748 91.7761 15.2397 92.525 15.27H94.5908V11.4932H92.588C91.9467 11.4781 91.3122 11.6279 90.7454 11.9281V11.9281Z" fill="#03041C"/>
<path d="M111.182 21.7524C110.918 21.4899 110.603 21.2838 110.258 21.1464C109.912 21.0089 109.542 20.9431 109.169 20.9528C108.792 20.9434 108.417 21.0087 108.065 21.145C107.713 21.2813 107.392 21.4859 107.119 21.7469C106.845 22.014 106.629 22.3351 106.486 22.69C106.343 23.0449 106.275 23.4257 106.287 23.8083C106.273 24.1902 106.34 24.5707 106.484 24.9249C106.627 25.2791 106.844 25.5992 107.119 25.8642C107.39 26.1272 107.712 26.3334 108.064 26.4707C108.416 26.608 108.792 26.6736 109.169 26.6637C109.541 26.6722 109.911 26.6057 110.257 26.4684C110.603 26.331 110.917 26.1255 111.182 25.8642C111.452 25.5961 111.664 25.2752 111.804 24.9214C111.945 24.5676 112.011 24.1887 111.998 23.8083C112.011 23.4278 111.946 23.0486 111.805 22.6947C111.665 22.3409 111.453 22.02 111.182 21.7524Z" fill="#03041C"/>
<path d="M98.0996 26.3001V11.4201H101.88V26.3001H98.0996ZM99.9896 9.68013C99.3096 9.68013 98.7296 9.46013 98.2496 9.02013C97.7896 8.58013 97.5596 8.00013 97.5596 7.28013C97.5596 6.56013 97.7896 5.98013 98.2496 5.54013C98.7296 5.10013 99.3096 4.88013 99.9896 4.88013C100.69 4.88013 101.27 5.10013 101.73 5.54013C102.19 5.98013 102.42 6.56013 102.42 7.28013C102.42 8.00013 102.19 8.58013 101.73 9.02013C101.27 9.46013 100.69 9.68013 99.9896 9.68013Z" fill="#03041C"/>
<path d="M42.0898 39.6401C41.5498 39.6401 41.0732 39.5434 40.6598 39.3501C40.2465 39.1568 39.9232 38.8801 39.6898 38.5201C39.4565 38.1601 39.3398 37.7268 39.3398 37.2201V36.9401H40.6398V37.2201C40.6398 37.6401 40.7698 37.9568 41.0298 38.1701C41.2898 38.3768 41.6432 38.4801 42.0898 38.4801C42.5432 38.4801 42.8798 38.3901 43.0998 38.2101C43.3265 38.0301 43.4398 37.8001 43.4398 37.5201C43.4398 37.3268 43.3832 37.1701 43.2698 37.0501C43.1632 36.9301 43.0032 36.8334 42.7898 36.7601C42.5832 36.6801 42.3298 36.6068 42.0298 36.5401L41.7998 36.4901C41.3198 36.3834 40.9065 36.2501 40.5598 36.0901C40.2198 35.9234 39.9565 35.7068 39.7698 35.4401C39.5898 35.1734 39.4998 34.8268 39.4998 34.4001C39.4998 33.9734 39.5998 33.6101 39.7998 33.3101C40.0065 33.0034 40.2932 32.7701 40.6598 32.6101C41.0332 32.4434 41.4698 32.3601 41.9698 32.3601C42.4698 32.3601 42.9132 32.4468 43.2998 32.6201C43.6932 32.7868 43.9998 33.0401 44.2198 33.3801C44.4465 33.7134 44.5598 34.1334 44.5598 34.6401V34.9401H43.2598V34.6401C43.2598 34.3734 43.2065 34.1601 43.0998 34.0001C42.9998 33.8334 42.8532 33.7134 42.6598 33.6401C42.4665 33.5601 42.2365 33.5201 41.9698 33.5201C41.5698 33.5201 41.2732 33.5968 41.0798 33.7501C40.8932 33.8968 40.7998 34.1001 40.7998 34.3601C40.7998 34.5334 40.8432 34.6801 40.9298 34.8001C41.0232 34.9201 41.1598 35.0201 41.3398 35.1001C41.5198 35.1801 41.7498 35.2501 42.0298 35.3101L42.2598 35.3601C42.7598 35.4668 43.1932 35.6034 43.5598 35.7701C43.9332 35.9368 44.2232 36.1568 44.4298 36.4301C44.6365 36.7034 44.7398 37.0534 44.7398 37.4801C44.7398 37.9068 44.6298 38.2834 44.4098 38.6101C44.1965 38.9301 43.8898 39.1834 43.4898 39.3701C43.0965 39.5501 42.6298 39.6401 42.0898 39.6401Z" fill="#1D1E33"/>
<path d="M47.5243 39.5001V32.5001H48.8443V35.3901H51.4443V32.5001H52.7643V39.5001H51.4443V36.5901H48.8443V39.5001H47.5243Z" fill="#1D1E33"/>
<path d="M58.6068 39.6401C57.7268 39.6401 57.0268 39.4001 56.5068 38.9201C55.9868 38.4334 55.7268 37.7401 55.7268 36.8401V35.1601C55.7268 34.2601 55.9868 33.5701 56.5068 33.0901C57.0268 32.6034 57.7268 32.3601 58.6068 32.3601C59.4868 32.3601 60.1868 32.6034 60.7068 33.0901C61.2268 33.5701 61.4868 34.2601 61.4868 35.1601V36.8401C61.4868 37.7401 61.2268 38.4334 60.7068 38.9201C60.1868 39.4001 59.4868 39.6401 58.6068 39.6401ZM58.6068 38.4601C59.1001 38.4601 59.4835 38.3168 59.7568 38.0301C60.0301 37.7434 60.1668 37.3601 60.1668 36.8801V35.1201C60.1668 34.6401 60.0301 34.2568 59.7568 33.9701C59.4835 33.6834 59.1001 33.5401 58.6068 33.5401C58.1201 33.5401 57.7368 33.6834 57.4568 33.9701C57.1835 34.2568 57.0468 34.6401 57.0468 35.1201V36.8801C57.0468 37.3601 57.1835 37.7434 57.4568 38.0301C57.7368 38.3168 58.1201 38.4601 58.6068 38.4601Z" fill="#1D1E33"/>
<path d="M64.4446 39.5001V32.5001H67.3246C67.7646 32.5001 68.1513 32.5901 68.4846 32.7701C68.8246 32.9434 69.0879 33.1901 69.2746 33.5101C69.4679 33.8301 69.5646 34.2101 69.5646 34.6501V34.7901C69.5646 35.2234 69.4646 35.6034 69.2646 35.9301C69.0713 36.2501 68.8046 36.5001 68.4646 36.6801C68.1313 36.8534 67.7513 36.9401 67.3246 36.9401H65.7646V39.5001H64.4446ZM65.7646 35.7401H67.1946C67.5079 35.7401 67.7613 35.6534 67.9546 35.4801C68.1479 35.3068 68.2446 35.0701 68.2446 34.7701V34.6701C68.2446 34.3701 68.1479 34.1334 67.9546 33.9601C67.7613 33.7868 67.5079 33.7001 67.1946 33.7001H65.7646V35.7401Z" fill="#1D1E33"/>
<defs>
<linearGradient id="paint0_linear_3213_69" x1="21.8685" y1="40.5434" x2="21.9794" y2="10.3549" gradientUnits="userSpaceOnUse">
<stop stop-color="#3031FF"/>
<stop offset="1" stop-color="#2BCCFF"/>
</linearGradient>
<linearGradient id="paint1_linear_3213_69" x1="10.4285" y1="0.59944" x2="10.4285" y2="31.6762" gradientUnits="userSpaceOnUse">
<stop stop-color="#FFBA93"/>
<stop offset="1" stop-color="#F50963"/>
</linearGradient>
</defs>
</svg>
