<svg width="80" height="100" viewBox="0 0 80 100" fill="none" xmlns="http://www.w3.org/2000/svg">
<path d="M79.9999 100V40.2327C79.9999 40 79.9999 39.7728 79.9999 39.5428L79.9784 39.1419C79.9784 38.9626 79.95 38.7808 79.932 38.6071C79.9142 38.4333 79.8927 38.2489 79.8675 38.0723C79.8425 37.8959 79.8173 37.7246 79.7889 37.5535C79.7603 37.3824 79.7351 37.2488 79.7029 37.0936C79.7029 37.0135 79.6706 36.9307 79.6528 36.8505C79.635 36.7701 79.6026 36.6097 79.574 36.492C79.5453 36.3744 79.506 36.2248 79.4702 36.0804C79.4344 35.936 79.4023 35.8262 79.3627 35.7007C79.3235 35.575 79.2876 35.4332 79.2446 35.3103C79.2019 35.1872 79.1804 35.1096 79.1446 35.0053C79.1088 34.9011 79.048 34.7195 78.9907 34.5751C78.9334 34.4305 78.9012 34.3343 78.8545 34.214C78.8081 34.0937 78.7617 33.9761 78.7078 33.8558C78.6542 33.7353 78.6006 33.5883 78.5395 33.4654C78.4143 33.1819 78.2784 32.9013 78.1351 32.6257L77.9634 32.2942C77.931 32.2381 77.9024 32.1792 77.8666 32.1257C77.7986 31.9947 77.7235 31.8584 77.6484 31.7353C77.5731 31.6124 77.4945 31.468 77.4157 31.3478C77.3369 31.2275 77.2689 31.1151 77.1973 31.0056C77.1256 30.8958 77.0649 30.7996 76.9932 30.7006C76.9218 30.6018 76.9075 30.5643 76.8608 30.5001L76.7034 30.2756C76.6318 30.1739 76.5601 30.0723 76.485 29.9761C76.4099 29.8797 76.3168 29.7434 76.2273 29.631C76.1379 29.5189 76.0769 29.4387 75.9983 29.3423C75.9625 29.2969 75.9267 29.2487 75.8874 29.2034L75.6905 28.9655C75.6079 28.8664 75.5222 28.7648 75.4328 28.666C75.3431 28.5669 75.2107 28.3985 75.0926 28.2834C74.9745 28.1686 74.8814 28.0536 74.7741 27.9412C74.6667 27.8291 74.6274 27.7861 74.552 27.7114C74.4769 27.6365 74.4053 27.5589 74.3267 27.4866C74.0404 27.1952 73.736 26.9091 73.421 26.6285C73.2957 26.5135 73.1705 26.4039 73.0415 26.2942C72.9128 26.1846 72.7517 26.0455 72.6012 25.9252C72.0214 25.4494 71.4129 24.9929 70.7757 24.5562C70.6685 24.4815 70.561 24.4118 70.4538 24.3397C69.6724 23.8191 68.8526 23.3317 67.9983 22.8798L67.5795 22.6632C67.1892 22.4627 66.7919 22.2675 66.384 22.083C66.2049 22.0028 66.026 21.9226 65.8506 21.8477C65.6036 21.7381 65.353 21.6311 65.0988 21.5322C64.9486 21.4707 64.8019 21.4092 64.6514 21.353C64.5012 21.2969 64.2435 21.198 64.0394 21.1231C63.8354 21.0482 63.6241 20.9734 63.4166 20.9012C63.2091 20.829 63.0586 20.7809 62.8869 20.7247L62.604 20.6338L62.1531 20.4947C61.9525 20.4333 61.7522 20.3771 61.5481 20.3183C61.344 20.2595 61.1901 20.2193 61.0004 20.1712L60.6784 20.0883C60.5389 20.0509 60.399 20.0161 60.256 19.984C60.1127 19.952 59.898 19.9038 59.7334 19.8637C59.5687 19.8236 59.4362 19.7942 59.286 19.7648L59.0069 19.7087C58.8994 19.6846 58.7919 19.6659 58.681 19.6445C58.57 19.6231 58.4697 19.6017 58.3588 19.583C58.2479 19.5643 58.0581 19.5268 57.9079 19.5055C57.842 19.4913 57.775 19.4797 57.7073 19.4707L57.3711 19.4145C57.2172 19.3905 57.0595 19.3664 56.9056 19.3477C56.7517 19.329 56.5476 19.2942 56.3507 19.2728C56.1541 19.2514 56.0108 19.2274 55.8425 19.2113L55.7244 19.198C55.5527 19.1766 55.3664 19.1605 55.1982 19.1445L54.6255 19.0937C54.4501 19.0776 54.2675 19.0643 54.0887 19.0536L53.8955 19.0402L53.4658 19.0188C53.3369 19.0188 53.2081 19.0028 53.0792 19.0001H52.9934C52.8823 19.0001 52.7642 19.0001 52.6355 19.0001H52.4635H52.1915H51.7836H51.5257C47.0272 18.9975 42.592 19.7923 38.5847 21.3192C34.5775 22.8462 31.1125 25.0616 28.4744 27.7835C28.5208 27.7408 28.5675 27.7007 28.6102 27.658C29.4045 26.9125 30.3446 26.2607 31.3988 25.7248C31.506 25.6685 31.6135 25.615 31.7244 25.567C32.1995 25.336 32.6959 25.1306 33.21 24.9521L33.7325 24.7807C34.7991 24.4488 35.9215 24.2276 37.0685 24.123L37.5266 24.0856L37.8273 24.0696C38.103 24.0696 38.3787 24.0481 38.6613 24.0481C42.0021 24.051 45.2108 25.0227 47.6108 26.7588C50.0107 28.4946 51.4145 30.859 51.5257 33.353C51.5257 33.4573 51.5257 33.5616 51.5257 33.6632C51.5257 33.7649 51.5257 33.8718 51.5257 33.9761V80.9359C52.2567 86.1666 55.5554 91.0095 60.7854 94.5301C66.0154 98.0507 72.8058 99.9994 79.846 100H79.9999Z" fill="url(#paint0_linear_0_11)"/>
<path d="M0 0V59.7674C0 60.0001 0 60.2273 0 60.4573L0.0214756 60.8582C0.0214756 61.0374 0.0501126 61.2193 0.0680098 61.393C0.0859067 61.5667 0.107381 61.7514 0.132436 61.9278C0.157492 62.1044 0.182545 62.2755 0.207601 62.4466L0.293515 62.9064L0.347204 63.1498C0.37226 63.2701 0.397315 63.3904 0.425951 63.508C0.454585 63.6257 0.493952 63.7753 0.529745 63.9197C0.565539 64.0641 0.597761 64.1738 0.637134 64.2994C0.676508 64.4251 0.712297 64.5669 0.755251 64.6898C0.798204 64.8129 0.819681 64.8905 0.855475 64.9947C0.891269 65.099 0.952127 65.2809 1.0094 65.4252C1.06667 65.5696 1.09529 65.6658 1.14541 65.7861C1.19552 65.9063 1.23848 66.024 1.28859 66.1445C1.3387 66.2648 1.39954 66.4118 1.4604 66.5347C1.58568 66.8182 1.72169 67.099 1.86487 67.3744L2.03669 67.7059C2.0689 67.762 2.09753 67.8209 2.13333 67.8744C2.20134 68.0054 2.27651 68.1416 2.35168 68.2648C2.42685 68.3877 2.50559 68.532 2.58433 68.6523C2.66309 68.7728 2.7275 68.885 2.80268 68.9948C2.87784 69.1043 2.9351 69.2005 3.00312 69.2995C3.07114 69.3983 3.0926 69.4358 3.13915 69.5L3.29663 69.7245C3.36822 69.8262 3.43982 69.9278 3.51498 70.024C3.59016 70.1204 3.6832 70.2567 3.77268 70.3691C3.86217 70.4812 3.92304 70.5614 4.00178 70.6578C4.03758 70.7032 4.07338 70.7514 4.11273 70.7967L4.30962 71.0349C4.39194 71.1337 4.47784 71.2353 4.56732 71.3341C4.65681 71.4331 4.78926 71.6016 4.90737 71.7166L5.22237 72.0589L5.44786 72.2887C5.51946 72.3636 5.59462 72.4411 5.6698 72.5135C5.95972 72.8048 6.26039 73.091 6.57897 73.3716C6.70426 73.4866 6.82951 73.5961 6.95838 73.7059C7.08724 73.8155 7.2483 73.9546 7.39864 74.0748C7.97493 74.5507 8.58701 75.0079 9.22415 75.4439C9.33152 75.5186 9.43534 75.5883 9.54629 75.6603C10.3263 76.1811 11.1449 76.6684 11.9982 77.1203L12.4205 77.337C12.8107 77.5375 13.208 77.7327 13.6161 77.9171C13.7951 77.9973 13.974 78.0775 14.1494 78.1524C14.3964 78.262 14.6434 78.3689 14.8975 78.4679C15.0478 78.5295 15.1982 78.5908 15.3485 78.6471C15.4989 78.7032 15.7566 78.8022 15.9606 78.8769C16.1646 78.9519 16.3758 79.0268 16.5834 79.0989C16.791 79.1712 16.9414 79.2191 17.1132 79.2755L17.396 79.3664C17.5427 79.4143 17.6966 79.4599 17.8469 79.5053C17.9973 79.5508 18.2478 79.6229 18.4519 79.6818C18.6559 79.7405 18.8098 79.7806 18.9995 79.8288L19.3217 79.9117C19.4613 79.9491 19.6009 79.984 19.7441 80.0159C19.8872 80.0481 20.102 80.0964 20.2666 80.1365C20.4313 80.1765 20.5637 80.2059 20.7141 80.2352L20.9933 80.2913C21.1006 80.3154 21.208 80.3343 21.319 80.3555C21.43 80.377 21.5302 80.3985 21.6411 80.4171C21.7521 80.4359 21.9418 80.4732 22.0921 80.4946C22.158 80.509 22.2249 80.5207 22.2926 80.5295L22.6291 80.5856C22.783 80.6097 22.9404 80.6338 23.0944 80.6524C23.2483 80.6712 23.4523 80.7058 23.6492 80.7273C23.8461 80.7486 23.9892 80.7727 24.1575 80.7889L24.2756 80.8022C24.4474 80.8235 24.6335 80.8395 24.8017 80.8557L25.3744 80.9065C25.5498 80.9225 25.7324 80.9359 25.9113 80.9466H26.1047L26.5341 80.9679C26.6631 80.9679 26.792 80.9838 26.9207 80.9867H27.0067C27.1176 80.9867 27.2357 80.9867 27.3647 80.9867H27.5364H27.805H28.2166H28.4742C32.9727 80.9893 37.4079 80.1944 41.4152 78.6674C45.4225 77.1406 48.8877 74.9251 51.5255 72.2032L51.386 72.329C50.5941 73.0747 49.6551 73.7267 48.6014 74.2619C48.4939 74.3183 48.3864 74.3717 48.2755 74.4197C47.8004 74.6507 47.3041 74.8561 46.7902 75.0346L46.2674 75.206C45.2008 75.5379 44.0785 75.7591 42.9316 75.8637L42.4733 75.9011L42.1726 75.9171C41.8969 75.9171 41.6215 75.9386 41.3386 75.9386C37.9979 75.9357 34.7893 74.964 32.3894 73.2279C29.9892 71.4921 28.5857 69.1277 28.4742 66.6337C28.4742 66.5294 28.4742 66.4251 28.4742 66.3235C28.4742 66.2218 28.4742 66.1149 28.4742 66.0106V19.0642C27.7432 13.8336 24.4445 8.9906 19.2146 5.46997C13.9846 1.94936 7.1942 0.000664819 0.153912 0H0Z" fill="url(#paint1_linear_0_11)"/>
<defs>
<linearGradient id="paint0_linear_0_11" x1="54.0279" y1="96.7515" x2="54.2835" y2="24.7105" gradientUnits="userSpaceOnUse">
<stop stop-color="#3031FF"/>
<stop offset="1" stop-color="#2BCCFF"/>
</linearGradient>
<linearGradient id="paint1_linear_0_11" x1="25.7645" y1="1.43048" x2="25.7645" y2="75.5909" gradientUnits="userSpaceOnUse">
<stop stop-color="#FFBA93"/>
<stop offset="1" stop-color="#F50963"/>
</linearGradient>
</defs>
</svg>
