<svg width="120" height="42" viewBox="0 0 120 42" fill="none" xmlns="http://www.w3.org/2000/svg">
<path d="M32.381 41.9048V16.8594C32.381 16.7619 32.381 16.6667 32.381 16.5703L32.3723 16.4023C32.3723 16.3272 32.3608 16.251 32.3535 16.1782C32.3463 16.1054 32.3376 16.0281 32.3274 15.9541C32.3173 15.8802 32.3071 15.8084 32.2956 15.7367C32.284 15.665 32.2738 15.609 32.2608 15.544C32.2608 15.5104 32.2477 15.4757 32.2405 15.4421C32.2333 15.4084 32.2202 15.3412 32.2086 15.2919C32.197 15.2426 32.1811 15.1799 32.1666 15.1194C32.1521 15.0589 32.1391 15.0129 32.1231 14.9603C32.1072 14.9076 32.0927 14.8482 32.0753 14.7967C32.058 14.7451 32.0493 14.7126 32.0348 14.6689C32.0203 14.6252 31.9957 14.5491 31.9725 14.4886C31.9493 14.428 31.9363 14.3877 31.9174 14.3373C31.8986 14.2869 31.8798 14.2376 31.858 14.1872C31.8363 14.1367 31.8146 14.0751 31.7899 14.0236C31.7392 13.9048 31.6842 13.7872 31.6262 13.6717L31.5567 13.5328C31.5436 13.5093 31.532 13.4846 31.5175 13.4622C31.49 13.4073 31.4596 13.3502 31.4292 13.2986C31.3987 13.2471 31.3669 13.1866 31.335 13.1362C31.3031 13.0858 31.2756 13.0387 31.2466 12.9928C31.2176 12.9468 31.193 12.9065 31.164 12.865C31.1351 12.8236 31.1293 12.8079 31.1104 12.781L31.0467 12.6869C31.0177 12.6443 30.9887 12.6017 30.9583 12.5614C30.9279 12.521 30.8902 12.4639 30.854 12.4168C30.8178 12.3698 30.7931 12.3362 30.7613 12.2958C30.7468 12.2768 30.7323 12.2566 30.7164 12.2376L30.6367 12.1379C30.6033 12.0964 30.5686 12.0538 30.5324 12.0124C30.4961 11.9709 30.4425 11.9003 30.3947 11.8521C30.3469 11.804 30.3092 11.7558 30.2658 11.7087C30.2223 11.6617 30.2064 11.6437 30.1759 11.6124C30.1455 11.581 30.1165 11.5485 30.0847 11.5182C29.9688 11.3961 29.8456 11.2762 29.7181 11.1586C29.6674 11.1104 29.6167 11.0645 29.5645 11.0185C29.5124 10.9726 29.4472 10.9143 29.3863 10.8639C29.1516 10.6645 28.9053 10.4732 28.6474 10.2902C28.604 10.2589 28.5605 10.2297 28.5171 10.1995C28.2008 9.98134 27.869 9.7771 27.5232 9.58771L27.3537 9.49696C27.1957 9.41292 27.0349 9.33113 26.8698 9.25382C26.7973 9.22021 26.7249 9.18659 26.6539 9.15522C26.5539 9.10928 26.4525 9.06446 26.3496 9.023C26.2888 8.99723 26.2294 8.97146 26.1685 8.94793C26.1077 8.9244 26.0034 8.88295 25.9208 8.85158C25.8382 8.8202 25.7527 8.78883 25.6687 8.75858C25.5847 8.72833 25.5238 8.70816 25.4543 8.68463L25.3398 8.64654L25.1573 8.58827C25.0761 8.5625 24.995 8.53897 24.9124 8.51432C24.8298 8.48967 24.7675 8.47286 24.6907 8.4527L24.5604 8.41796C24.5039 8.40228 24.4473 8.38771 24.3894 8.37426C24.3314 8.36082 24.2445 8.34065 24.1779 8.32385C24.1112 8.30704 24.0576 8.29471 23.9968 8.28239L23.8838 8.25886C23.8403 8.24877 23.7968 8.24093 23.7519 8.23197C23.707 8.223 23.6664 8.21404 23.6215 8.2062C23.5766 8.19835 23.4998 8.18267 23.439 8.17371C23.4123 8.16779 23.3852 8.16293 23.3578 8.15914L23.2217 8.13561C23.1594 8.12552 23.0956 8.11544 23.0333 8.1076C22.971 8.09975 22.8884 8.08519 22.8087 8.07622C22.7291 8.06726 22.6711 8.05718 22.603 8.05046L22.5552 8.04485C22.4857 8.03589 22.4103 8.02917 22.3422 8.02244L22.1104 8.00116C22.0394 7.99443 21.9655 7.98883 21.8931 7.98435L21.8149 7.97875L21.641 7.96978C21.5888 7.96978 21.5367 7.96306 21.4845 7.96194H21.4498C21.4048 7.96194 21.357 7.96194 21.3049 7.96194H21.2353H21.1252H20.9601H20.8557C19.0349 7.96085 17.2397 8.29391 15.6177 8.93377C13.9957 9.57363 12.5932 10.502 11.5254 11.6426C11.5442 11.6247 11.5631 11.6079 11.5804 11.59C11.9019 11.2776 12.2824 11.0045 12.7091 10.7799C12.7525 10.7563 12.796 10.7339 12.8409 10.7138C13.0332 10.617 13.2341 10.5309 13.4422 10.4561L13.6537 10.3843C14.0854 10.2452 14.5397 10.1525 15.004 10.1087L15.1894 10.093L15.3111 10.0863C15.4227 10.0863 15.5343 10.0773 15.6487 10.0773C17.0009 10.0785 18.2997 10.4857 19.2711 11.2132C20.2425 11.9406 20.8107 12.9314 20.8557 13.9765C20.8557 14.0202 20.8557 14.0639 20.8557 14.1065C20.8557 14.1491 20.8557 14.1939 20.8557 14.2376V33.916C21.1516 36.1079 22.4868 38.1373 24.6037 39.6126C26.7206 41.0879 29.4691 41.9045 32.3187 41.9048H32.381Z" fill="url(#paint0_linear_587_146)"/>
<path d="M0 0V25.0454C0 25.1429 0 25.2381 0 25.3345L0.00869252 25.5025C0.00869252 25.5776 0.0202837 25.6538 0.0275278 25.7266C0.0347718 25.7994 0.0434636 25.8768 0.0536053 25.9507C0.063747 26.0247 0.0738875 26.0964 0.0840291 26.1681L0.118804 26.3608L0.140535 26.4628C0.150677 26.5132 0.160818 26.5636 0.172409 26.6129C0.183999 26.6622 0.199933 26.7249 0.214421 26.7854C0.228909 26.8459 0.241951 26.8919 0.257888 26.9445C0.273825 26.9972 0.288311 27.0566 0.305697 27.1081C0.323083 27.1597 0.331776 27.1922 0.346264 27.2359C0.360752 27.2796 0.385385 27.3558 0.408566 27.4163C0.431747 27.4768 0.443334 27.5171 0.463617 27.5675C0.483901 27.6179 0.50129 27.6672 0.521573 27.7177C0.541857 27.7681 0.566483 27.8297 0.591113 27.8812C0.641822 28 0.696877 28.1177 0.75483 28.2331L0.824374 28.372C0.837414 28.3955 0.849003 28.4202 0.863491 28.4426C0.891018 28.4975 0.921445 28.5546 0.951871 28.6062C0.982296 28.6577 1.01417 28.7182 1.04604 28.7686C1.07792 28.8191 1.10399 28.8661 1.13442 28.9121C1.16484 28.958 1.18802 28.9983 1.21555 29.0398C1.24308 29.0812 1.25177 29.0969 1.27061 29.1238L1.33435 29.2179C1.36333 29.2605 1.39231 29.3031 1.42273 29.3434C1.45316 29.3838 1.49082 29.4409 1.52704 29.488C1.56326 29.535 1.5879 29.5686 1.61977 29.609C1.63426 29.628 1.64875 29.6482 1.66468 29.6672L1.74437 29.767C1.77769 29.8084 1.81246 29.851 1.84868 29.8924C1.8849 29.9339 1.93851 30.0045 1.98632 30.0527L2.11382 30.1961L2.20509 30.2924C2.23407 30.3238 2.26449 30.3563 2.29492 30.3866C2.41227 30.5087 2.53397 30.6286 2.66292 30.7462C2.71363 30.7944 2.76433 30.8403 2.81649 30.8863C2.86865 30.9322 2.93384 30.9905 2.99469 31.0409C3.22795 31.2403 3.4757 31.4319 3.73359 31.6146C3.77705 31.6459 3.81907 31.6751 3.86398 31.7053C4.17971 31.9235 4.51105 32.1277 4.85642 32.3171L5.02737 32.4079C5.1853 32.4919 5.34611 32.5737 5.51128 32.651C5.58372 32.6846 5.65616 32.7182 5.72715 32.7496C5.82712 32.7955 5.92709 32.8403 6.02995 32.8818C6.0908 32.9076 6.15166 32.9333 6.21251 32.9569C6.27336 32.9804 6.37767 33.0219 6.46025 33.0532C6.54283 33.0846 6.62831 33.116 6.71234 33.1462C6.79637 33.1765 6.85723 33.1966 6.92677 33.2202L7.04123 33.2583C7.10063 33.2784 7.16292 33.2975 7.22377 33.3165C7.28462 33.3356 7.38604 33.3658 7.46862 33.3905C7.55121 33.4151 7.6135 33.4319 7.69029 33.4521L7.82068 33.4868C7.87719 33.5025 7.93369 33.5171 7.99165 33.5305C8.0496 33.544 8.13653 33.5642 8.20317 33.581C8.26982 33.5978 8.32342 33.6101 8.38427 33.6224L8.49728 33.6459C8.54074 33.656 8.58421 33.6639 8.62912 33.6728C8.67404 33.6818 8.7146 33.6908 8.75952 33.6986C8.80443 33.7065 8.88122 33.7221 8.94207 33.7311C8.96873 33.7371 8.99582 33.742 9.0232 33.7457L9.15939 33.7692C9.22169 33.7793 9.28543 33.7894 9.34773 33.7972C9.41003 33.8051 9.49262 33.8196 9.5723 33.8286C9.65199 33.8375 9.70994 33.8476 9.77803 33.8544L9.82584 33.86C9.89539 33.8689 9.97072 33.8756 10.0388 33.8824L10.2706 33.9037C10.3416 33.9104 10.4155 33.916 10.4879 33.9205H10.5662L10.74 33.9294C10.7922 33.9294 10.8444 33.9361 10.8965 33.9373H10.9313C10.9762 33.9373 11.024 33.9373 11.0762 33.9373H11.1457H11.2544H11.421H11.5253C13.3461 33.9384 15.1413 33.6053 16.7633 32.9654C18.3853 32.3256 19.7879 31.3972 20.8556 30.2566L20.7991 30.3093C20.4786 30.6218 20.0985 30.895 19.672 31.1193C19.6285 31.1429 19.585 31.1653 19.5401 31.1854C19.3478 31.2822 19.1469 31.3683 18.9389 31.4431L18.7273 31.5149C18.2956 31.654 17.8413 31.7467 17.3771 31.7905L17.1916 31.8062L17.0699 31.8129C16.9583 31.8129 16.8468 31.8219 16.7323 31.8219C15.3801 31.8207 14.0814 31.4135 13.11 30.686C12.1385 29.9586 11.5704 28.9678 11.5253 27.9227C11.5253 27.879 11.5253 27.8353 11.5253 27.7927C11.5253 27.7501 11.5253 27.7053 11.5253 27.6616V7.9888C11.2294 5.79692 9.89422 3.76749 7.77733 2.29218C5.66043 0.816873 2.91194 0.000278591 0.0622979 0H0Z" fill="url(#paint1_linear_587_146)"/>
<path d="M39.8955 39.0476V32.381H42.5907C43.0098 32.381 43.378 32.4635 43.6955 32.6286C44.013 32.7937 44.2638 33.0286 44.4479 33.3333C44.632 33.6317 44.7241 33.9873 44.7241 34.4V34.5333C44.7241 34.9397 44.6288 35.2952 44.4384 35.6C44.2542 35.9048 44.0003 36.1397 43.6765 36.3048C43.359 36.4698 42.9971 36.5524 42.5907 36.5524H41.0479V39.0476H39.8955ZM41.0479 35.5143H42.4765C42.8066 35.5143 43.0701 35.4254 43.2669 35.2476C43.4701 35.0698 43.5717 34.8254 43.5717 34.5143V34.419C43.5717 34.1079 43.4733 33.8635 43.2765 33.6857C43.0796 33.5079 42.813 33.419 42.4765 33.419H41.0479V35.5143Z" fill="#525258"/>
<path d="M49.1387 39.181C48.3133 39.181 47.653 38.9524 47.1578 38.4952C46.6689 38.0317 46.4245 37.3683 46.4245 36.5048V34.9238C46.4245 34.0603 46.6689 33.4 47.1578 32.9429C47.653 32.4794 48.3133 32.2476 49.1387 32.2476C49.9705 32.2476 50.6308 32.4794 51.1197 32.9429C51.6086 33.4 51.853 34.0603 51.853 34.9238V36.5048C51.853 37.3683 51.6086 38.0317 51.1197 38.4952C50.6308 38.9524 49.9705 39.181 49.1387 39.181ZM49.1387 38.1524C49.634 38.1524 50.0181 38.0095 50.2911 37.7238C50.5705 37.4317 50.7102 37.0381 50.7102 36.5429V34.8857C50.7102 34.3905 50.5705 34 50.2911 33.7143C50.0181 33.4222 49.634 33.2762 49.1387 33.2762C48.6498 33.2762 48.2657 33.4222 47.9864 33.7143C47.7133 34 47.5768 34.3905 47.5768 34.8857V36.5429C47.5768 37.0381 47.7133 37.4317 47.9864 37.7238C48.2657 38.0095 48.6498 38.1524 49.1387 38.1524Z" fill="#525258"/>
<path d="M53.9561 39.0476V32.381H56.8038C57.2228 32.381 57.5879 32.454 57.899 32.6C58.2101 32.746 58.4514 32.9524 58.6228 33.219C58.8006 33.4794 58.8895 33.7937 58.8895 34.1619V34.2667C58.8895 34.6794 58.7911 35.0095 58.5942 35.2571C58.3974 35.5048 58.1593 35.6857 57.88 35.8V35.9524C58.1276 35.9651 58.3212 36.0508 58.4609 36.2095C58.6069 36.3683 58.68 36.581 58.68 36.8476V39.0476H57.5371V37.0095C57.5371 36.8508 57.4927 36.7238 57.4038 36.6286C57.3212 36.527 57.1847 36.4762 56.9942 36.4762H55.1085V39.0476H53.9561ZM55.1085 35.4381H56.6895C57.0196 35.4381 57.2768 35.3524 57.4609 35.181C57.6514 35.0032 57.7466 34.7683 57.7466 34.4762V34.3905C57.7466 34.0921 57.6546 33.8571 57.4704 33.6857C57.2863 33.5079 57.026 33.419 56.6895 33.419H55.1085V35.4381Z" fill="#525258"/>
<path d="M62.3858 39.0476V33.419H60.3954V32.381H65.5192V33.419H63.5287V39.0476H62.3858Z" fill="#525258"/>
<path d="M67.3657 39.0476V32.381H71.5181V33.419H68.5181V35.181H71.28V36.2286H68.5181V39.0476H67.3657Z" fill="#525258"/>
<path d="M75.9114 39.181C75.086 39.181 74.4257 38.9524 73.9305 38.4952C73.4416 38.0317 73.1971 37.3683 73.1971 36.5048V34.9238C73.1971 34.0603 73.4416 33.4 73.9305 32.9429C74.4257 32.4794 75.086 32.2476 75.9114 32.2476C76.7432 32.2476 77.4035 32.4794 77.8924 32.9429C78.3813 33.4 78.6257 34.0603 78.6257 34.9238V36.5048C78.6257 37.3683 78.3813 38.0317 77.8924 38.4952C77.4035 38.9524 76.7432 39.181 75.9114 39.181ZM75.9114 38.1524C76.4067 38.1524 76.7908 38.0095 77.0638 37.7238C77.3432 37.4317 77.4829 37.0381 77.4829 36.5429V34.8857C77.4829 34.3905 77.3432 34 77.0638 33.7143C76.7908 33.4222 76.4067 33.2762 75.9114 33.2762C75.4225 33.2762 75.0384 33.4222 74.759 33.7143C74.486 34 74.3495 34.3905 74.3495 34.8857V36.5429C74.3495 37.0381 74.486 37.4317 74.759 37.7238C75.0384 38.0095 75.4225 38.1524 75.9114 38.1524Z" fill="#525258"/>
<path d="M80.7288 39.0476V32.381H81.8812V38.0095H85.005V39.0476H80.7288Z" fill="#525258"/>
<path d="M86.8523 39.0476V32.381H88.0047V39.0476H86.8523Z" fill="#525258"/>
<path d="M92.8218 39.181C91.9964 39.181 91.3361 38.9524 90.8408 38.4952C90.3519 38.0317 90.1075 37.3683 90.1075 36.5048V34.9238C90.1075 34.0603 90.3519 33.4 90.8408 32.9429C91.3361 32.4794 91.9964 32.2476 92.8218 32.2476C93.6535 32.2476 94.3138 32.4794 94.8027 32.9429C95.2916 33.4 95.5361 34.0603 95.5361 34.9238V36.5048C95.5361 37.3683 95.2916 38.0317 94.8027 38.4952C94.3138 38.9524 93.6535 39.181 92.8218 39.181ZM92.8218 38.1524C93.317 38.1524 93.7011 38.0095 93.9742 37.7238C94.2535 37.4317 94.3932 37.0381 94.3932 36.5429V34.8857C94.3932 34.3905 94.2535 34 93.9742 33.7143C93.7011 33.4222 93.317 33.2762 92.8218 33.2762C92.3329 33.2762 91.9488 33.4222 91.6694 33.7143C91.3964 34 91.2599 34.3905 91.2599 34.8857V36.5429C91.2599 37.0381 91.3964 37.4317 91.6694 37.7238C91.9488 38.0095 92.3329 38.1524 92.8218 38.1524Z" fill="#525258"/>
<path d="M51.5479 12.1234C50.6255 11.578 49.5692 11.3005 48.4978 11.3223C47.7604 11.3035 47.0251 11.4099 46.3233 11.637C45.8069 11.8155 45.3306 12.0935 44.9213 12.4553C44.6543 12.7023 44.4231 12.9855 44.2346 13.2965H44.1774V5.71429H40V26.3151H44.1774V18.8187C44.1141 17.7844 44.4136 16.7604 45.0243 15.9232C45.313 15.5856 45.6763 15.3198 46.0856 15.147C46.4948 14.9742 46.9386 14.899 47.3819 14.9274C47.7523 14.9022 48.1239 14.9526 48.4741 15.0756C48.8243 15.1986 49.1459 15.3915 49.4191 15.6428C49.9365 16.2551 50.1915 17.0467 50.1287 17.8459V26.3151H54.3062V17.5598C54.3276 16.4381 54.0804 15.3275 53.5851 14.3209C53.1238 13.4131 52.4182 12.652 51.5479 12.1234Z" fill="#03041C"/>
<path d="M70.1574 22.195V16.9017C70.1574 15.0476 69.5852 13.6056 68.4407 12.6213C67.1313 11.5861 65.4896 11.0633 63.8226 11.1506C62.7208 11.1177 61.6241 11.3125 60.601 11.7229C59.7801 12.0616 59.0493 12.5866 58.4664 13.2565C57.9515 13.8709 57.5626 14.5806 57.3219 15.3452L57.2362 15.6142L61.1274 16.9189L61.196 16.6041C61.2939 16.0552 61.5645 15.552 61.9686 15.1678C62.4813 14.7657 63.1277 14.5734 63.7769 14.6299C64.428 14.5751 65.0742 14.7809 65.5737 15.2021C65.762 15.3923 65.9097 15.6186 66.0081 15.8674C66.1065 16.1163 66.1534 16.3825 66.146 16.6499V17.1649H62.5408C61.5303 17.1468 60.5259 17.3236 59.5823 17.6857C58.7535 18.0034 58.0342 18.5539 57.5108 19.2708C56.9931 20.0425 56.7309 20.9572 56.7611 21.886C56.7356 22.8213 56.9972 23.7419 57.5108 24.524C58.0174 25.2496 58.7172 25.8185 59.5308 26.1664C60.434 26.555 61.4088 26.75 62.392 26.7386C63.24 26.7741 64.0851 26.6176 64.8642 26.2808C65.399 26.0359 65.8664 25.6647 66.2261 25.1993C66.4091 24.9557 66.5681 24.6951 66.7011 24.421H66.7812C66.8109 24.6881 66.8966 24.9459 67.0327 25.1776C67.1687 25.4093 67.3521 25.6098 67.5709 25.7658C68.1299 26.1615 68.8034 26.3626 69.4879 26.338H72.1775V22.7672H70.7469C70.352 22.7672 70.1574 22.6699 70.1574 22.195ZM66.0945 20.421C66.1117 20.8027 66.043 21.1834 65.8935 21.535C65.7439 21.8866 65.5173 22.2002 65.2304 22.4525C64.5896 22.985 63.7738 23.2603 62.9414 23.225C62.386 23.264 61.8337 23.1149 61.3735 22.8016C61.2153 22.6802 61.0882 22.523 61.0026 22.343C60.9171 22.1629 60.8755 21.9651 60.8814 21.7658C60.8722 21.5786 60.909 21.3919 60.9889 21.2223C61.0687 21.0527 61.189 20.9052 61.3391 20.793C61.7538 20.5203 62.2459 20.3897 62.7412 20.421H66.0945Z" fill="#03041C"/>
<path d="M79.4163 11.9289C78.9224 12.2015 78.5352 12.633 78.3176 13.1535H78.2832V11.5512H74.1631V26.3151H78.3405V17.9603C78.3059 17.5856 78.358 17.2079 78.493 16.8566C78.628 16.5053 78.8421 16.1898 79.1188 15.9346C79.7131 15.4747 80.4509 15.2396 81.2017 15.2708H83.2618V11.494H81.259C80.6176 11.4789 79.9831 11.6286 79.4163 11.9289Z" fill="#03041C"/>
<path d="M90.7473 11.9289C90.2523 12.2 89.8647 12.6321 89.6486 13.1535H89.6143V11.5512H85.4941V26.3151H89.6658V17.9603C89.6318 17.5851 89.6849 17.2072 89.8209 16.8558C89.9569 16.5045 90.1721 16.1892 90.4497 15.9346C91.0423 15.4755 91.778 15.2404 92.527 15.2708H94.5928V11.494H92.5899C91.9486 11.4789 91.3142 11.6286 90.7473 11.9289Z" fill="#03041C"/>
<path d="M106.833 19.0476C106.9 20.0806 106.6 21.104 105.986 21.9375C105.698 22.2761 105.335 22.5429 104.925 22.7167C104.516 22.8906 104.072 22.9666 103.628 22.9389C103.258 22.9641 102.886 22.9137 102.536 22.7907C102.186 22.6678 101.864 22.4748 101.591 22.2236C101.075 21.6107 100.822 20.8189 100.887 20.0204V11.5512H96.704V20.3066C96.6864 21.4224 96.9335 22.5264 97.425 23.5283C97.8843 24.4421 98.5899 25.2092 99.4622 25.7429C100.386 26.2891 101.445 26.5666 102.518 26.544C103.27 26.5639 104.02 26.4515 104.733 26.2121C105.262 26.0259 105.746 25.7294 106.152 25.3423C106.42 25.0797 106.651 24.7812 106.838 24.4553H106.896V27.7458C106.896 28.2207 106.695 28.318 106.381 28.318H98.3693V32.0376H107.577C108.036 32.0567 108.495 31.9812 108.924 31.8159C109.353 31.6505 109.744 31.3987 110.072 31.0762C110.391 30.7398 110.638 30.3423 110.8 29.9076C110.961 29.4729 111.033 29.01 111.01 28.5469V11.5512H106.833V19.0476Z" fill="#03041C"/>
<path d="M119.183 21.7528C118.919 21.4904 118.604 21.2843 118.259 21.1469C117.913 21.0094 117.543 20.9436 117.17 20.9533C116.793 20.9439 116.418 21.0092 116.066 21.1455C115.714 21.2818 115.393 21.4863 115.12 21.7474C114.846 22.0144 114.63 22.3356 114.487 22.6905C114.344 23.0454 114.276 23.4262 114.288 23.8087C114.274 24.1907 114.341 24.5711 114.485 24.9254C114.628 25.2796 114.845 25.5997 115.12 25.8646C115.391 26.1277 115.713 26.3339 116.065 26.4712C116.417 26.6084 116.793 26.6741 117.17 26.6641C117.542 26.6726 117.912 26.6062 118.258 26.4689C118.604 26.3315 118.918 26.126 119.183 25.8646C119.453 25.5966 119.665 25.2757 119.805 24.9219C119.946 24.5681 120.012 24.1891 119.999 23.8087C120.012 23.4283 119.947 23.0491 119.806 22.6952C119.666 22.3414 119.454 22.0205 119.183 21.7528Z" fill="#03041C"/>
<defs>
<linearGradient id="paint0_linear_587_146" x1="21.8685" y1="40.5435" x2="21.9794" y2="10.3549" gradientUnits="userSpaceOnUse">
<stop stop-color="#00A067"/>
<stop offset="1" stop-color="#0BC280"/>
</linearGradient>
<linearGradient id="paint1_linear_587_146" x1="10.4285" y1="0.59944" x2="10.4285" y2="31.6762" gradientUnits="userSpaceOnUse">
<stop stop-color="#FFBA93"/>
<stop offset="1" stop-color="#F50963"/>
</linearGradient>
</defs>
</svg>
