<svg width="120" height="42" viewBox="0 0 120 42" fill="none" xmlns="http://www.w3.org/2000/svg">
<path d="M32.381 41.9048V16.8594C32.381 16.7619 32.381 16.6667 32.381 16.5703L32.3723 16.4023C32.3723 16.3272 32.3608 16.251 32.3535 16.1782C32.3463 16.1054 32.3376 16.0281 32.3274 15.9541C32.3173 15.8802 32.3071 15.8084 32.2956 15.7367C32.284 15.665 32.2738 15.609 32.2608 15.544C32.2608 15.5104 32.2477 15.4757 32.2405 15.4421C32.2333 15.4084 32.2202 15.3412 32.2086 15.2919C32.197 15.2426 32.1811 15.1799 32.1666 15.1194C32.1521 15.0589 32.1391 15.0129 32.1231 14.9603C32.1072 14.9076 32.0927 14.8482 32.0753 14.7967C32.058 14.7451 32.0493 14.7126 32.0348 14.6689C32.0203 14.6252 31.9957 14.5491 31.9725 14.4886C31.9493 14.428 31.9363 14.3877 31.9174 14.3373C31.8986 14.2869 31.8798 14.2376 31.858 14.1872C31.8363 14.1367 31.8146 14.0751 31.7899 14.0236C31.7392 13.9048 31.6842 13.7872 31.6262 13.6717L31.5567 13.5328C31.5436 13.5093 31.532 13.4846 31.5175 13.4622C31.49 13.4073 31.4596 13.3502 31.4292 13.2986C31.3987 13.2471 31.3669 13.1866 31.335 13.1362C31.3031 13.0858 31.2756 13.0387 31.2466 12.9928C31.2176 12.9468 31.193 12.9065 31.164 12.865C31.1351 12.8236 31.1293 12.8079 31.1104 12.781L31.0467 12.6869C31.0177 12.6443 30.9887 12.6017 30.9583 12.5614C30.9279 12.521 30.8902 12.4639 30.854 12.4168C30.8178 12.3698 30.7931 12.3362 30.7613 12.2958C30.7468 12.2768 30.7323 12.2566 30.7164 12.2376L30.6367 12.1379C30.6033 12.0964 30.5686 12.0538 30.5324 12.0124C30.4961 11.9709 30.4425 11.9003 30.3947 11.8521C30.3469 11.804 30.3092 11.7558 30.2658 11.7087C30.2223 11.6617 30.2064 11.6437 30.1759 11.6124C30.1455 11.581 30.1165 11.5485 30.0847 11.5182C29.9688 11.3961 29.8456 11.2762 29.7181 11.1586C29.6674 11.1104 29.6167 11.0645 29.5645 11.0185C29.5124 10.9726 29.4472 10.9143 29.3863 10.8639C29.1516 10.6645 28.9053 10.4732 28.6474 10.2902C28.604 10.2589 28.5605 10.2297 28.5171 10.1995C28.2008 9.98134 27.869 9.7771 27.5232 9.58771L27.3537 9.49696C27.1957 9.41292 27.0349 9.33113 26.8698 9.25382C26.7973 9.22021 26.7249 9.18659 26.6539 9.15522C26.5539 9.10928 26.4525 9.06446 26.3496 9.023C26.2888 8.99723 26.2294 8.97146 26.1685 8.94793C26.1077 8.9244 26.0034 8.88295 25.9208 8.85158C25.8382 8.8202 25.7527 8.78883 25.6687 8.75858C25.5847 8.72833 25.5238 8.70816 25.4543 8.68463L25.3398 8.64654L25.1573 8.58827C25.0761 8.5625 24.995 8.53897 24.9124 8.51432C24.8298 8.48967 24.7675 8.47286 24.6907 8.4527L24.5604 8.41796C24.5039 8.40228 24.4473 8.38771 24.3894 8.37426C24.3314 8.36082 24.2445 8.34065 24.1779 8.32385C24.1112 8.30704 24.0576 8.29471 23.9968 8.28239L23.8838 8.25886C23.8403 8.24877 23.7968 8.24093 23.7519 8.23197C23.707 8.223 23.6664 8.21404 23.6215 8.2062C23.5766 8.19835 23.4998 8.18267 23.439 8.17371C23.4123 8.16779 23.3852 8.16293 23.3578 8.15914L23.2217 8.13561C23.1594 8.12552 23.0956 8.11544 23.0333 8.1076C22.971 8.09975 22.8884 8.08519 22.8087 8.07622C22.7291 8.06726 22.6711 8.05718 22.603 8.05046L22.5552 8.04485C22.4857 8.03589 22.4103 8.02917 22.3422 8.02244L22.1104 8.00116C22.0394 7.99443 21.9655 7.98883 21.8931 7.98435L21.8149 7.97875L21.641 7.96978C21.5888 7.96978 21.5367 7.96306 21.4845 7.96194H21.4498C21.4048 7.96194 21.357 7.96194 21.3049 7.96194H21.2353H21.1252H20.9601H20.8557C19.0349 7.96085 17.2397 8.29391 15.6177 8.93377C13.9957 9.57363 12.5932 10.502 11.5254 11.6426C11.5442 11.6247 11.5631 11.6079 11.5804 11.59C11.9019 11.2776 12.2824 11.0045 12.7091 10.7799C12.7525 10.7563 12.796 10.7339 12.8409 10.7138C13.0332 10.617 13.2341 10.5309 13.4422 10.4561L13.6537 10.3843C14.0854 10.2452 14.5397 10.1525 15.004 10.1087L15.1894 10.093L15.3111 10.0863C15.4227 10.0863 15.5343 10.0773 15.6487 10.0773C17.0009 10.0785 18.2997 10.4857 19.2711 11.2132C20.2425 11.9406 20.8107 12.9314 20.8557 13.9765C20.8557 14.0202 20.8557 14.0639 20.8557 14.1065C20.8557 14.1491 20.8557 14.1939 20.8557 14.2376V33.916C21.1516 36.1079 22.4868 38.1373 24.6037 39.6126C26.7206 41.0879 29.4691 41.9045 32.3187 41.9048H32.381Z" fill="url(#paint0_linear_565_91)"/>
<path d="M0 0V25.0454C0 25.1429 0 25.2381 0 25.3345L0.00869252 25.5025C0.00869252 25.5776 0.0202837 25.6538 0.0275278 25.7266C0.0347718 25.7994 0.0434636 25.8768 0.0536053 25.9507C0.063747 26.0247 0.0738875 26.0964 0.0840291 26.1681L0.118804 26.3608L0.140535 26.4628C0.150677 26.5132 0.160818 26.5636 0.172409 26.6129C0.183999 26.6622 0.199933 26.7249 0.214421 26.7854C0.228909 26.8459 0.241951 26.8919 0.257888 26.9445C0.273825 26.9972 0.288311 27.0566 0.305697 27.1081C0.323083 27.1597 0.331776 27.1922 0.346264 27.2359C0.360752 27.2796 0.385385 27.3558 0.408566 27.4163C0.431747 27.4768 0.443334 27.5171 0.463617 27.5675C0.483901 27.6179 0.50129 27.6672 0.521573 27.7177C0.541857 27.7681 0.566483 27.8297 0.591113 27.8812C0.641822 28 0.696877 28.1177 0.75483 28.2331L0.824374 28.372C0.837414 28.3955 0.849003 28.4202 0.863491 28.4426C0.891018 28.4975 0.921445 28.5546 0.951871 28.6062C0.982296 28.6577 1.01417 28.7182 1.04604 28.7686C1.07792 28.8191 1.10399 28.8661 1.13442 28.9121C1.16484 28.958 1.18802 28.9983 1.21555 29.0398C1.24308 29.0812 1.25177 29.0969 1.27061 29.1238L1.33435 29.2179C1.36333 29.2605 1.39231 29.3031 1.42273 29.3434C1.45316 29.3838 1.49082 29.4409 1.52704 29.488C1.56326 29.535 1.5879 29.5686 1.61977 29.609C1.63426 29.628 1.64875 29.6482 1.66468 29.6672L1.74437 29.767C1.77769 29.8084 1.81246 29.851 1.84868 29.8924C1.8849 29.9339 1.93851 30.0045 1.98632 30.0527L2.11382 30.1961L2.20509 30.2924C2.23407 30.3238 2.26449 30.3563 2.29492 30.3866C2.41227 30.5087 2.53397 30.6286 2.66292 30.7462C2.71363 30.7944 2.76433 30.8403 2.81649 30.8863C2.86865 30.9322 2.93384 30.9905 2.99469 31.0409C3.22795 31.2403 3.4757 31.4319 3.73359 31.6146C3.77705 31.6459 3.81907 31.6751 3.86398 31.7053C4.17971 31.9235 4.51105 32.1277 4.85642 32.3171L5.02737 32.4079C5.1853 32.4919 5.34611 32.5737 5.51128 32.651C5.58372 32.6846 5.65616 32.7182 5.72715 32.7496C5.82712 32.7955 5.92709 32.8403 6.02995 32.8818C6.0908 32.9076 6.15166 32.9333 6.21251 32.9569C6.27336 32.9804 6.37767 33.0219 6.46025 33.0532C6.54283 33.0846 6.62831 33.116 6.71234 33.1462C6.79637 33.1765 6.85723 33.1966 6.92677 33.2202L7.04123 33.2583C7.10063 33.2784 7.16292 33.2975 7.22377 33.3165C7.28462 33.3356 7.38604 33.3658 7.46862 33.3905C7.55121 33.4151 7.6135 33.4319 7.69029 33.4521L7.82068 33.4868C7.87719 33.5025 7.93369 33.5171 7.99165 33.5305C8.0496 33.544 8.13653 33.5642 8.20317 33.581C8.26982 33.5978 8.32342 33.6101 8.38427 33.6224L8.49728 33.6459C8.54074 33.656 8.58421 33.6639 8.62912 33.6728C8.67404 33.6818 8.7146 33.6908 8.75952 33.6986C8.80443 33.7065 8.88122 33.7221 8.94207 33.7311C8.96873 33.7371 8.99582 33.742 9.0232 33.7457L9.15939 33.7692C9.22169 33.7793 9.28543 33.7894 9.34773 33.7972C9.41003 33.8051 9.49262 33.8196 9.5723 33.8286C9.65199 33.8375 9.70994 33.8476 9.77803 33.8544L9.82584 33.86C9.89539 33.8689 9.97072 33.8756 10.0388 33.8824L10.2706 33.9037C10.3416 33.9104 10.4155 33.916 10.4879 33.9205H10.5662L10.74 33.9294C10.7922 33.9294 10.8444 33.9361 10.8965 33.9373H10.9313C10.9762 33.9373 11.024 33.9373 11.0762 33.9373H11.1457H11.2544H11.421H11.5253C13.3461 33.9384 15.1413 33.6053 16.7633 32.9654C18.3853 32.3256 19.7879 31.3972 20.8556 30.2566L20.7991 30.3093C20.4786 30.6218 20.0985 30.895 19.672 31.1193C19.6285 31.1429 19.585 31.1653 19.5401 31.1854C19.3478 31.2822 19.1469 31.3683 18.9389 31.4431L18.7273 31.5149C18.2956 31.654 17.8413 31.7467 17.3771 31.7905L17.1916 31.8062L17.0699 31.8129C16.9583 31.8129 16.8468 31.8219 16.7323 31.8219C15.3801 31.8207 14.0814 31.4135 13.11 30.686C12.1385 29.9586 11.5704 28.9678 11.5253 27.9227C11.5253 27.879 11.5253 27.8353 11.5253 27.7927C11.5253 27.7501 11.5253 27.7053 11.5253 27.6616V7.9888C11.2294 5.79692 9.89422 3.76749 7.77733 2.29218C5.66043 0.816873 2.91194 0.000278591 0.0622979 0H0Z" fill="url(#paint1_linear_565_91)"/>
<g opacity="0.7">
<path d="M39.8945 39.0472V32.3805H42.5898C43.0088 32.3805 43.3771 32.4631 43.6945 32.6282C44.012 32.7932 44.2628 33.0282 44.4469 33.3329C44.631 33.6313 44.7231 33.9869 44.7231 34.3996V34.5329C44.7231 34.9393 44.6279 35.2948 44.4374 35.5996C44.2533 35.9043 43.9993 36.1393 43.6755 36.3043C43.358 36.4694 42.9961 36.552 42.5898 36.552H41.0469V39.0472H39.8945ZM41.0469 35.5139H42.4755C42.8056 35.5139 43.0691 35.425 43.266 35.2472C43.4691 35.0694 43.5707 34.825 43.5707 34.5139V34.4186C43.5707 34.1075 43.4723 33.8631 43.2755 33.6853C43.0787 33.5075 42.812 33.4186 42.4755 33.4186H41.0469V35.5139Z" fill="white"/>
<path d="M49.1378 39.1805C48.3124 39.1805 47.652 38.952 47.1568 38.4948C46.6679 38.0313 46.4235 37.3678 46.4235 36.5043V34.9234C46.4235 34.0599 46.6679 33.3996 47.1568 32.9424C47.652 32.4789 48.3124 32.2472 49.1378 32.2472C49.9695 32.2472 50.6298 32.4789 51.1187 32.9424C51.6076 33.3996 51.852 34.0599 51.852 34.9234V36.5043C51.852 37.3678 51.6076 38.0313 51.1187 38.4948C50.6298 38.952 49.9695 39.1805 49.1378 39.1805ZM49.1378 38.152C49.633 38.152 50.0171 38.0091 50.2901 37.7234C50.5695 37.4313 50.7092 37.0377 50.7092 36.5424V34.8853C50.7092 34.3901 50.5695 33.9996 50.2901 33.7139C50.0171 33.4218 49.633 33.2758 49.1378 33.2758C48.6489 33.2758 48.2647 33.4218 47.9854 33.7139C47.7124 33.9996 47.5759 34.3901 47.5759 34.8853V36.5424C47.5759 37.0377 47.7124 37.4313 47.9854 37.7234C48.2647 38.0091 48.6489 38.152 49.1378 38.152Z" fill="white"/>
<path d="M53.9552 39.0472V32.3805H56.8028C57.2218 32.3805 57.5869 32.4535 57.898 32.5996C58.2091 32.7456 58.4504 32.952 58.6218 33.2186C58.7996 33.4789 58.8885 33.7932 58.8885 34.1615V34.2662C58.8885 34.6789 58.7901 35.0091 58.5933 35.2567C58.3964 35.5043 58.1583 35.6853 57.879 35.7996V35.952C58.1266 35.9647 58.3202 36.0504 58.4599 36.2091C58.606 36.3678 58.679 36.5805 58.679 36.8472V39.0472H57.5361V37.0091C57.5361 36.8504 57.4917 36.7234 57.4028 36.6282C57.3202 36.5266 57.1837 36.4758 56.9933 36.4758H55.1075V39.0472H53.9552ZM55.1075 35.4377H56.6885C57.0187 35.4377 57.2758 35.352 57.4599 35.1805C57.6504 35.0028 57.7456 34.7678 57.7456 34.4758V34.3901C57.7456 34.0916 57.6536 33.8567 57.4695 33.6853C57.2853 33.5075 57.025 33.4186 56.6885 33.4186H55.1075V35.4377Z" fill="white"/>
<path d="M62.3849 39.0472V33.4186H60.3944V32.3805H65.5182V33.4186H63.5277V39.0472H62.3849Z" fill="white"/>
<path d="M67.3648 39.0472V32.3805H71.5171V33.4186H68.5171V35.1805H71.2791V36.2282H68.5171V39.0472H67.3648Z" fill="white"/>
<path d="M75.9104 39.1805C75.0851 39.1805 74.4247 38.952 73.9295 38.4948C73.4406 38.0313 73.1962 37.3678 73.1962 36.5043V34.9234C73.1962 34.0599 73.4406 33.3996 73.9295 32.9424C74.4247 32.4789 75.0851 32.2472 75.9104 32.2472C76.7422 32.2472 77.4025 32.4789 77.8914 32.9424C78.3803 33.3996 78.6247 34.0599 78.6247 34.9234V36.5043C78.6247 37.3678 78.3803 38.0313 77.8914 38.4948C77.4025 38.952 76.7422 39.1805 75.9104 39.1805ZM75.9104 38.152C76.4057 38.152 76.7898 38.0091 77.0628 37.7234C77.3422 37.4313 77.4819 37.0377 77.4819 36.5424V34.8853C77.4819 34.3901 77.3422 33.9996 77.0628 33.7139C76.7898 33.4218 76.4057 33.2758 75.9104 33.2758C75.4216 33.2758 75.0374 33.4218 74.7581 33.7139C74.4851 33.9996 74.3485 34.3901 74.3485 34.8853V36.5424C74.3485 37.0377 74.4851 37.4313 74.7581 37.7234C75.0374 38.0091 75.4216 38.152 75.9104 38.152Z" fill="white"/>
<path d="M80.7279 39.0472V32.3805H81.8802V38.0091H85.0041V39.0472H80.7279Z" fill="white"/>
<path d="M86.8514 39.0472V32.3805H88.0038V39.0472H86.8514Z" fill="white"/>
<path d="M92.8208 39.1805C91.9954 39.1805 91.3351 38.952 90.8398 38.4948C90.351 38.0313 90.1065 37.3678 90.1065 36.5043V34.9234C90.1065 34.0599 90.351 33.3996 90.8398 32.9424C91.3351 32.4789 91.9954 32.2472 92.8208 32.2472C93.6525 32.2472 94.3129 32.4789 94.8017 32.9424C95.2906 33.3996 95.5351 34.0599 95.5351 34.9234V36.5043C95.5351 37.3678 95.2906 38.0313 94.8017 38.4948C94.3129 38.952 93.6525 39.1805 92.8208 39.1805ZM92.8208 38.152C93.316 38.152 93.7002 38.0091 93.9732 37.7234C94.2525 37.4313 94.3922 37.0377 94.3922 36.5424V34.8853C94.3922 34.3901 94.2525 33.9996 93.9732 33.7139C93.7002 33.4218 93.316 33.2758 92.8208 33.2758C92.3319 33.2758 91.9478 33.4218 91.6684 33.7139C91.3954 33.9996 91.2589 34.3901 91.2589 34.8853V36.5424C91.2589 37.0377 91.3954 37.4313 91.6684 37.7234C91.9478 38.0091 92.3319 38.152 92.8208 38.152Z" fill="white"/>
</g>
<path d="M51.5479 12.123C50.6255 11.5776 49.5692 11.3001 48.4978 11.3219C47.7604 11.3031 47.0251 11.4095 46.3233 11.6366C45.8069 11.8151 45.3306 12.0931 44.9213 12.4549C44.6543 12.7019 44.4231 12.9851 44.2346 13.2961H44.1774V5.71387H40V26.3147H44.1774V18.8183C44.1141 17.784 44.4136 16.7599 45.0243 15.9227C45.313 15.5851 45.6763 15.3194 46.0856 15.1466C46.4948 14.9738 46.9386 14.8986 47.3819 14.927C47.7523 14.9018 48.1239 14.9522 48.4741 15.0752C48.8243 15.1981 49.1459 15.3911 49.4191 15.6423C49.9365 16.2547 50.1915 17.0463 50.1287 17.8455V26.3147H54.3062V17.5594C54.3276 16.4377 54.0804 15.3271 53.5851 14.3205C53.1238 13.4127 52.4182 12.6516 51.5479 12.123Z" fill="white"/>
<path d="M70.1565 22.1946V16.9013C70.1565 15.0472 69.5842 13.6052 68.4397 12.6209C67.1303 11.5857 65.4886 11.0629 63.8217 11.1502C62.7198 11.1173 61.6231 11.3121 60.6 11.7225C59.7791 12.0611 59.0483 12.5862 58.4654 13.2561C57.9505 13.8704 57.5616 14.5802 57.321 15.3448L57.2352 15.6137L61.1264 16.9185L61.1951 16.6037C61.2929 16.0548 61.5636 15.5516 61.9676 15.1674C62.4803 14.7653 63.1267 14.573 63.7759 14.6295C64.427 14.5747 65.0733 14.7805 65.5728 15.2017C65.761 15.3919 65.9088 15.6182 66.0071 15.867C66.1055 16.1158 66.1524 16.382 66.145 16.6495V17.1645H62.5398C61.5294 17.1464 60.5249 17.3232 59.5814 17.6853C58.7526 18.003 58.0332 18.5535 57.5098 19.2704C56.9922 20.042 56.7299 20.9568 56.7602 21.8856C56.7346 22.8208 56.9962 23.7415 57.5098 24.5236C58.0164 25.2491 58.7162 25.8181 59.5298 26.166C60.4331 26.5546 61.4078 26.7496 62.391 26.7382C63.239 26.7737 64.0841 26.6172 64.8632 26.2804C65.398 26.0354 65.8654 25.6643 66.2251 25.1989C66.4081 24.9553 66.5671 24.6947 66.7001 24.4206H66.7802C66.8099 24.6877 66.8956 24.9455 67.0317 25.1772C67.1677 25.4089 67.3511 25.6093 67.5699 25.7654C68.1289 26.1611 68.8025 26.3621 69.4869 26.3376H72.1765V22.7668H70.7459C70.351 22.7668 70.1565 22.6695 70.1565 22.1946ZM66.0935 20.4206C66.1108 20.8023 66.042 21.183 65.8925 21.5346C65.7429 21.8862 65.5163 22.1997 65.2294 22.4521C64.5886 22.9845 63.7728 23.2599 62.9405 23.2246C62.3851 23.2636 61.8327 23.1144 61.3725 22.8011C61.2143 22.6798 61.0872 22.5226 61.0016 22.3425C60.9161 22.1625 60.8745 21.9647 60.8804 21.7654C60.8712 21.5781 60.9081 21.3915 60.9879 21.2219C61.0677 21.0522 61.188 20.9048 61.3381 20.7926C61.7528 20.5199 62.2449 20.3893 62.7402 20.4206H66.0935Z" fill="white"/>
<path d="M79.4153 11.9281C78.9214 12.2007 78.5343 12.6323 78.3166 13.1527H78.2823V11.5504H74.1621V26.3144H78.3395V17.9596C78.3049 17.5849 78.3571 17.2072 78.492 16.8558C78.627 16.5045 78.8411 16.189 79.1178 15.9339C79.7121 15.4739 80.4499 15.2388 81.2008 15.27H83.2608V11.4932H81.258C80.6167 11.4781 79.9822 11.6279 79.4153 11.9281Z" fill="white"/>
<path d="M90.7454 11.9281C90.2503 12.1993 89.8627 12.6313 89.6466 13.1527H89.6123V11.5504H85.4922V26.3144H89.6638V17.9596C89.6299 17.5844 89.683 17.2064 89.819 16.8551C89.9549 16.5037 90.1701 16.1885 90.4478 15.9339C91.0404 15.4748 91.7761 15.2397 92.525 15.27H94.5908V11.4932H92.588C91.9467 11.4781 91.3122 11.6279 90.7454 11.9281Z" fill="white"/>
<path d="M106.833 19.0472C106.9 20.0802 106.6 21.1036 105.986 21.937C105.698 22.2757 105.335 22.5425 104.925 22.7163C104.516 22.8902 104.072 22.9662 103.628 22.9385C103.258 22.9637 102.886 22.9133 102.536 22.7903C102.186 22.6674 101.864 22.4744 101.591 22.2232C101.075 21.6103 100.822 20.8185 100.887 20.02V11.5508H96.704V20.3061C96.6864 21.4219 96.9335 22.526 97.425 23.5279C97.8843 24.4416 98.5899 25.2087 99.4622 25.7425C100.386 26.2887 101.445 26.5661 102.518 26.5436C103.27 26.5634 104.02 26.4511 104.733 26.2117C105.262 26.0254 105.746 25.729 106.152 25.3419C106.42 25.0793 106.651 24.7808 106.838 24.4549H106.896V27.7453C106.896 28.2203 106.695 28.3176 106.381 28.3176H98.3693V32.0372H107.577C108.036 32.0563 108.495 31.9808 108.924 31.8154C109.353 31.6501 109.744 31.3983 110.072 31.0758C110.391 30.7394 110.638 30.3419 110.8 29.9072C110.961 29.4725 111.033 29.0096 111.01 28.5465V11.5508H106.833V19.0472Z" fill="white"/>
<path d="M119.182 21.7524C118.918 21.49 118.603 21.2839 118.258 21.1464C117.912 21.009 117.542 20.9432 117.169 20.9529C116.792 20.9435 116.417 21.0088 116.065 21.1451C115.713 21.2814 115.392 21.4859 115.119 21.747C114.845 22.014 114.629 22.3352 114.486 22.6901C114.343 23.045 114.275 23.4258 114.287 23.8083C114.273 24.1902 114.34 24.5707 114.484 24.925C114.627 25.2792 114.844 25.5992 115.119 25.8642C115.39 26.1272 115.712 26.3334 116.064 26.4707C116.416 26.608 116.792 26.6736 117.169 26.6637C117.541 26.6722 117.911 26.6058 118.257 26.4684C118.603 26.3311 118.917 26.1256 119.182 25.8642C119.452 25.5962 119.664 25.2753 119.804 24.9215C119.945 24.5677 120.011 24.1887 119.998 23.8083C120.011 23.4278 119.946 23.0487 119.805 22.6948C119.665 22.3409 119.453 22.02 119.182 21.7524Z" fill="white"/>
<defs>
<linearGradient id="paint0_linear_565_91" x1="21.8685" y1="40.5435" x2="21.9794" y2="10.3549" gradientUnits="userSpaceOnUse">
<stop stop-color="#3031FF"/>
<stop offset="1" stop-color="#2BCCFF"/>
</linearGradient>
<linearGradient id="paint1_linear_565_91" x1="10.4278" y1="0" x2="10.4278" y2="33.9373" gradientUnits="userSpaceOnUse">
<stop stop-color="#ED212C"/>
<stop offset="0.0001" stop-color="#ED212C"/>
<stop offset="1" stop-color="#B51D2D"/>
</linearGradient>
</defs>
</svg>
